<svg width="13" height="16" viewBox="0 0 13 16" fill="none" xmlns="http://www.w3.org/2000/svg">
<path d="M1.14941 4.03229L3.4131 3.02335V1.84628L6.46376 1.09944L9.5647 1.84769V3.01903L11.8503 4.06942C11.9169 4.6433 12.0134 6.08294 11.6072 7.81956C11.5494 8.0666 12.7724 7.802 12.698 8.04428C12.698 7.41948 12.6966 3.53131 11.8503 4.06942C11.0182 3.42952 10.5686 1.66806 9.5647 1.84769C8.23976 0.196239 6.53701 0.31115 4.55308 0.99947C4.43308 -0.164166 1.08137 4.4482 1.14946 4.03229H1.14941ZM12.8338 3.59952L12.7825 3.32591L10.6044 2.32493V0.99947L6.46204 0L2.37338 1.00088V2.32061L0.251444 3.26645L0.188612 3.52142C0.169742 3.59806 -0.267859 5.42716 0.258122 7.86621C0.566213 9.29492 1.14243 10.6407 1.97099 11.866C2.99948 13.3872 4.41968 14.7228 6.19219 15.8356L6.45394 16L6.7203 15.8438C8.44105 14.8345 9.8346 13.5644 10.8624 12.0688C11.6875 10.8681 12.3582 9.49689 12.698 8.04428C13.2764 5.57216 12.8489 3.67996 12.8338 3.59952Z" fill="white"/>
</svg>
