<svg width="31" height="30" viewBox="0 0 31 30" fill="none" xmlns="http://www.w3.org/2000/svg">
<g opacity="0.4" clip-path="url(#clip0_567_154)">
<path d="M12.0308 12.3611C12.0308 11.4683 10.9496 11.023 10.3209 11.6568L9.93867 12.0421C9.3126 12.6732 9.75964 13.7464 10.6486 13.7464H11.0308C11.5831 13.7464 12.0308 13.2987 12.0308 12.7464V12.3611Z" fill="white"/>
<path d="M13.7163 8.23352C13.7071 8.24282 13.7137 8.25864 13.7268 8.25864C13.7349 8.25864 13.7415 8.26524 13.7415 8.27338V12.7464C13.7415 13.2987 14.1892 13.7464 14.7415 13.7464H24.8517C25.404 13.7464 25.8517 13.2987 25.8517 12.7464V7.88647C25.8517 7.33419 25.404 6.88647 24.8517 6.88647H15.3384C15.1555 6.88647 14.9802 6.95951 14.8514 7.08936L13.7163 8.23352Z" fill="white"/>
<path d="M11.5538 25.0876C10.8799 25.0876 10.3988 25.7434 10.4966 26.4101C10.5314 26.6469 10.5567 26.8869 10.5721 27.1297C10.6008 27.5802 10.9745 27.9309 11.4259 27.9309H29.1295C29.6818 27.9309 30.1295 27.4832 30.1295 26.9309V26.0876C30.1295 25.5354 29.6818 25.0876 29.1295 25.0876H11.5538Z" fill="white"/>
<path d="M29.1293 23.3765C29.6815 23.3765 30.1293 22.9288 30.1293 22.3765V2.96216C30.1293 2.40987 29.6815 1.96216 29.1293 1.96216H13.3721C13.1055 1.96216 12.8499 2.06862 12.6621 2.2579L1.21779 13.7947C1.03199 13.982 0.927734 14.2351 0.927734 14.4989V18.0344C0.927734 18.5069 1.31076 18.89 1.78325 18.89C4.84703 18.89 7.57215 20.4719 9.15257 22.8787C9.3504 23.18 9.67918 23.3765 10.0396 23.3765H29.1293ZM25.8898 18.1594C25.8898 18.6319 25.5068 19.0149 25.0343 19.0149H22.981C22.5086 19.0149 22.1255 18.6319 22.1255 18.1594C22.1255 17.6869 22.5086 17.3039 22.981 17.3039H25.0343C25.5068 17.3039 25.8898 17.6869 25.8898 18.1594ZM14.0465 5.47119C14.2343 5.28192 14.4899 5.17546 14.7565 5.17546H26.5627C27.115 5.17546 27.5627 5.62317 27.5627 6.17546V14.4574C27.5627 15.0097 27.115 15.4574 26.5627 15.4574H6.54072C5.65175 15.4574 5.20471 14.3843 5.83078 13.7532L14.0465 5.47119Z" fill="white"/>
</g>
<defs>
<clipPath id="clip0_567_154">
<rect width="29.2015" height="29.2015" fill="white" transform="translate(0.927734 0.365234)"/>
</clipPath>
</defs>
</svg>
