<svg width="29" height="30" viewBox="0 0 29 30" fill="none" xmlns="http://www.w3.org/2000/svg">
<g opacity="0.4" clip-path="url(#clip0_567_159)">
<path d="M4.24805 10.3228C3.77844 10.3228 3.39844 10.7054 3.39844 11.1782V14.6001H1.69922V11.1782C1.69922 10.7054 1.31922 10.3228 0.849609 10.3228C0.380002 10.3228 0 10.7054 0 11.1782V19.7329C0 20.2058 0.380002 20.5884 0.849609 20.5884C1.31922 20.5884 1.69922 20.2058 1.69922 19.7329V16.311H3.39844V19.7329C3.39844 20.2058 3.77844 20.5884 4.24805 20.5884H5.09766V10.3228H4.24805Z" fill="white"/>
<path d="M27.3008 10.3228H26.4512C25.982 10.3228 25.6016 10.7058 25.6016 11.1782V21.4438C25.6016 21.9163 25.982 22.2993 26.4512 22.2993H27.3008C28.2393 22.2993 29 21.5333 29 20.5884V12.0337C29 11.0887 28.2393 10.3228 27.3008 10.3228Z" fill="white"/>
<path fill-rule="evenodd" clip-rule="evenodd" d="M22.0898 11.1782V12.0337H23.9023V19.7329H22.0898C22.0898 19.8657 22.0591 19.9969 22.0002 20.1155L20.301 23.5374C20.1566 23.8273 19.863 24.0103 19.541 24.0103H11.0449C10.8193 24.0103 10.6035 23.92 10.4442 23.7596L7.04581 20.3377C6.88648 20.1774 6.79688 19.9601 6.79688 19.7329V11.1782C6.79688 10.951 6.88648 10.7338 7.04581 10.5734L8.74503 8.86247C8.9043 8.70204 9.12005 8.61182 9.3457 8.61182H10.1953V6.90088H9.3457C8.8761 6.90088 8.49609 6.51826 8.49609 6.04541C8.49609 5.57256 8.8761 5.18994 9.3457 5.18994H17.8418C18.3114 5.18994 18.6914 5.57256 18.6914 6.04541C18.6914 6.51826 18.3114 6.90088 17.8418 6.90088H16.9922V8.61182H17.8418C18.0675 8.61182 18.2832 8.70204 18.4425 8.86247L19.8928 10.3228H21.2402C21.7098 10.3228 22.0898 10.7054 22.0898 11.1782ZM14.5963 10.6324L12.3463 14.6324L11.7176 15.7501H13H14.7176L13.0963 18.6324L14.4037 19.3678L16.6537 15.3678L17.2824 14.2501H16H14.2824L15.9037 11.3678L14.5963 10.6324Z" fill="white"/>
</g>
<defs>
<clipPath id="clip0_567_159">
<rect width="29" height="29.2" fill="white"/>
</clipPath>
</defs>
</svg>
