<svg width="17" height="15" viewBox="0 0 17 15" fill="none" xmlns="http://www.w3.org/2000/svg">
<path d="M4.675 0C3.43511 0 2.24601 0.521256 1.36928 1.4491C0.492543 2.37694 0 3.63536 0 4.94753C0 5.3973 0.0765 5.84708 0.187 6.29685H3.655L4.7345 3.26537C4.9895 2.54573 5.9925 2.47376 6.3155 3.26537L8.075 8.09595L8.5765 6.81859C8.687 6.52174 8.9845 6.29685 9.35 6.29685H16.813C16.9235 5.84708 17 5.3973 17 4.94753C17 3.63536 16.5075 2.37694 15.6307 1.4491C14.754 0.521256 13.5649 0 12.325 0C10.744 0 9.35 0.836582 8.5 2.10495C7.65 0.836582 6.256 0 4.675 0ZM0.85 7.64618C0.624566 7.64618 0.408365 7.74095 0.248959 7.90965C0.0895533 8.07835 0 8.30715 0 8.54573C0 8.7843 0.0895533 9.01311 0.248959 9.18181C0.408365 9.3505 0.624566 9.44528 0.85 9.44528H2.924L7.65 14.3928C8.5 15.2024 8.5 15.2024 9.35 14.3928L14.076 9.44528H16.15C16.3754 9.44528 16.5916 9.3505 16.751 9.18181C16.9104 9.01311 17 8.7843 17 8.54573C17 8.30715 16.9104 8.07835 16.751 7.90965C16.5916 7.74095 16.3754 7.64618 16.15 7.64618H9.69L8.8995 9.71514C8.5595 10.6237 7.582 10.4978 7.2675 9.74213L5.525 4.94753L4.709 7.04348C4.5815 7.38531 4.2925 7.64618 3.91 7.64618H0.85Z" fill="white"/>
</svg>
