<svg width="11" height="12" viewBox="0 0 11 12" fill="none" xmlns="http://www.w3.org/2000/svg">
<g clip-path="url(#clip0_853_207)">
<path d="M0.714355 10V2.29785H2.25586V10H0.714355ZM3.6792 10V2.29785H6.27344C7.53385 2.29785 8.53288 2.63802 9.27051 3.31836C10.0081 3.9987 10.377 4.93148 10.377 6.1167C10.377 7.31982 10.0189 8.26872 9.30273 8.96338C8.59017 9.65446 7.618 10 6.38623 10H3.6792ZM5.2207 8.57129H6.34326C7.12744 8.57129 7.73975 8.35645 8.18018 7.92676C8.62061 7.49707 8.84082 6.90088 8.84082 6.13818C8.84082 5.37191 8.62061 4.7793 8.18018 4.36035C7.74333 3.94141 7.13102 3.73193 6.34326 3.73193H5.2207V8.57129Z" fill="white"/>
</g>
<defs>
<clipPath id="clip0_853_207">
<rect width="11" height="12" fill="white"/>
</clipPath>
</defs>
</svg>
