<svg width="20" height="21" viewBox="0 0 20 21" fill="none" xmlns="http://www.w3.org/2000/svg">
<path d="M2.83181 5.88525H17.3546C18.3572 5.88525 19.1699 6.79363 19.1699 7.91418V18.0588C19.1699 19.1793 18.3572 20.0877 17.3546 20.0877H2.83181C1.82923 20.0877 1.01647 19.1793 1.01647 18.0588V7.91418C1.01647 6.79363 1.82923 5.88525 2.83181 5.88525Z" stroke="white" stroke-width="1.03091" stroke-linecap="round" stroke-linejoin="round"/>
<path d="M6.46323 20.0872V3.85583C6.46323 3.31772 6.65449 2.80166 6.99493 2.42116C7.33538 2.04067 7.79711 1.8269 8.27857 1.8269H11.9093C12.3907 1.8269 12.8525 2.04067 13.1929 2.42116C13.5334 2.80166 13.7246 3.31772 13.7246 3.85583V20.0872" stroke="white" stroke-width="1.03091" stroke-linecap="round" stroke-linejoin="round"/>
</svg>
