<svg width="21" height="30" viewBox="0 0 21 30" fill="none" xmlns="http://www.w3.org/2000/svg">
<path d="M4.00202 18.4673C4.75028 19.1012 5.24644 19.9599 5.42571 20.8973H9.77913V14.8002C8.3048 14.4193 7.21249 13.0779 7.21249 11.4862H8.92358C8.92358 12.4297 9.69118 13.1973 10.6347 13.1973C11.5782 13.1973 12.3458 12.4297 12.3458 11.4862H14.0569C14.0569 13.0779 12.9646 14.4193 11.4902 14.8002V20.8972H15.8446C16.0258 19.9601 16.5267 19.0971 17.282 18.4548C19.5821 16.499 20.9012 13.6472 20.9012 10.6307C20.9012 1.42773 9.67755 -3.0919 3.28587 3.47448C-0.885544 7.76009 -0.528953 14.6291 4.00202 18.4673Z" fill="#FDFFFC"/>
<path d="M10.6351 29.5667C12.5221 29.5667 14.0573 28.0315 14.0573 26.1445H7.21289C7.21289 28.0315 8.74808 29.5667 10.6351 29.5667Z" fill="#FDFFFC"/>
<path d="M5.50098 22.6084H15.7675V24.4336H5.50098V22.6084Z" fill="#FDFFFC"/>
</svg>
