<svg width="34" height="34" viewBox="0 0 34 34" fill="none" xmlns="http://www.w3.org/2000/svg">
<g filter="url(#filter0_d_551_1779)">
<path d="M32 15C32 22.1797 26.1797 28 19 28C11.8203 28 6 22.1797 6 15C6 7.8203 11.8203 2 19 2C26.1797 2 32 7.8203 32 15ZM8.93796 15C8.93796 20.5571 13.4429 25.062 19 25.062C24.5571 25.062 29.062 20.5571 29.062 15C29.062 9.44289 24.5571 4.93796 19 4.93796C13.4429 4.93796 8.93796 9.44289 8.93796 15Z" fill="#FF002E"/>
</g>
<path d="M19.0003 14.7084C18.6136 14.7084 18.2426 14.5548 17.9691 14.2813C17.6956 14.0078 17.542 13.6369 17.542 13.2501C17.542 12.8633 17.6956 12.4924 17.9691 12.2189C18.2426 11.9454 18.6136 11.7917 19.0003 11.7917C19.3871 11.7917 19.758 11.9454 20.0315 12.2189C20.305 12.4924 20.4587 12.8633 20.4587 13.2501C20.4587 13.4416 20.4209 13.6312 20.3477 13.8082C20.2744 13.9851 20.1669 14.1459 20.0315 14.2813C19.8961 14.4167 19.7353 14.5241 19.5584 14.5974C19.3815 14.6707 19.1918 14.7084 19.0003 14.7084ZM19.0003 9.16675C17.9174 9.16675 16.8787 9.59696 16.113 10.3627C15.3472 11.1285 14.917 12.1671 14.917 13.2501C14.917 16.3126 19.0003 20.8334 19.0003 20.8334C19.0003 20.8334 23.0837 16.3126 23.0837 13.2501C23.0837 12.1671 22.6535 11.1285 21.8877 10.3627C21.1219 9.59696 20.0833 9.16675 19.0003 9.16675Z" fill="white"/>
<defs>
<filter id="filter0_d_551_1779" x="0" y="0" width="34" height="34" filterUnits="userSpaceOnUse" color-interpolation-filters="sRGB">
<feFlood flood-opacity="0" result="BackgroundImageFix"/>
<feColorMatrix in="SourceAlpha" type="matrix" values="0 0 0 0 0 0 0 0 0 0 0 0 0 0 0 0 0 0 127 0" result="hardAlpha"/>
<feOffset dx="-2" dy="2"/>
<feGaussianBlur stdDeviation="2"/>
<feComposite in2="hardAlpha" operator="out"/>
<feColorMatrix type="matrix" values="0 0 0 0 1 0 0 0 0 0 0 0 0 0 0.180392 0 0 0 0.11 0"/>
<feBlend mode="normal" in2="BackgroundImageFix" result="effect1_dropShadow_551_1779"/>
<feBlend mode="normal" in="SourceGraphic" in2="effect1_dropShadow_551_1779" result="shape"/>
</filter>
</defs>
</svg>
