<svg width="37" height="37" viewBox="0 0 37 37" fill="none" xmlns="http://www.w3.org/2000/svg">
<path d="M20.8125 25.4375H13.875C13.875 18.5 17.575 16.1875 20.1187 14.8C21.0437 14.3375 21.7375 13.875 22.2 13.4125C23.3563 12.2563 22.8938 10.6375 22.6625 10.175C21.9688 8.55625 20.35 6.9375 17.3438 6.9375C12.4875 6.9375 11.5625 11.3313 11.5625 12.2563L4.625 11.3313C5.0875 7.4 8.55625 0 17.3438 0C22.6625 0 27.2875 3.00625 29.1375 7.4C30.7563 11.3313 30.0625 15.4938 27.2875 18.2688C26.1313 19.425 24.7437 20.1187 23.5875 20.8125C21.5063 21.9688 20.8125 23.125 20.8125 25.4375Z" fill="#FFDB4A"/>
<path d="M21.9688 32.375C21.9688 34.9303 19.8991 37 17.3438 37C14.7884 37 12.7188 34.9303 12.7188 32.375C12.7188 29.8197 14.7884 27.75 17.3438 27.75C19.8991 27.75 21.9688 29.8197 21.9688 32.375Z" fill="#FFDB4A"/>
</svg>
