<svg width="34" height="34" viewBox="0 0 34 34" fill="none" xmlns="http://www.w3.org/2000/svg">
<g filter="url(#filter0_d_551_1786)">
<path d="M32 15C32 22.1797 26.1797 28 19 28C11.8203 28 6 22.1797 6 15C6 7.8203 11.8203 2 19 2C26.1797 2 32 7.8203 32 15ZM8.93796 15C8.93796 20.5571 13.4429 25.062 19 25.062C24.5571 25.062 29.062 20.5571 29.062 15C29.062 9.44289 24.5571 4.93796 19 4.93796C13.4429 4.93796 8.93796 9.44289 8.93796 15Z" fill="#9BFF5E"/>
</g>
<path d="M18.9997 8.33325C19.5301 8.33325 20.0388 8.54397 20.4139 8.91904C20.789 9.29411 20.9997 9.80282 20.9997 10.3333V14.3333C20.9997 14.8637 20.789 15.3724 20.4139 15.7475C20.0388 16.1225 19.5301 16.3333 18.9997 16.3333C18.4692 16.3333 17.9605 16.1225 17.5855 15.7475C17.2104 15.3724 16.9997 14.8637 16.9997 14.3333V10.3333C16.9997 9.80282 17.2104 9.29411 17.5855 8.91904C17.9605 8.54397 18.4692 8.33325 18.9997 8.33325ZM23.6663 14.3333C23.6663 16.6866 21.9263 18.6266 19.6663 18.9533V20.9999H18.333V18.9533C16.073 18.6266 14.333 16.6866 14.333 14.3333H15.6663C15.6663 15.2173 16.0175 16.0652 16.6427 16.6903C17.2678 17.3154 18.1156 17.6666 18.9997 17.6666C19.8837 17.6666 20.7316 17.3154 21.3567 16.6903C21.9818 16.0652 22.333 15.2173 22.333 14.3333H23.6663Z" fill="white"/>
<defs>
<filter id="filter0_d_551_1786" x="0" y="0" width="34" height="34" filterUnits="userSpaceOnUse" color-interpolation-filters="sRGB">
<feFlood flood-opacity="0" result="BackgroundImageFix"/>
<feColorMatrix in="SourceAlpha" type="matrix" values="0 0 0 0 0 0 0 0 0 0 0 0 0 0 0 0 0 0 127 0" result="hardAlpha"/>
<feOffset dx="-2" dy="2"/>
<feGaussianBlur stdDeviation="2"/>
<feComposite in2="hardAlpha" operator="out"/>
<feColorMatrix type="matrix" values="0 0 0 0 0.607843 0 0 0 0 1 0 0 0 0 0.368627 0 0 0 0.11 0"/>
<feBlend mode="normal" in2="BackgroundImageFix" result="effect1_dropShadow_551_1786"/>
<feBlend mode="normal" in="SourceGraphic" in2="effect1_dropShadow_551_1786" result="shape"/>
</filter>
</defs>
</svg>
